HIERARCHY
ROOT Hips
{
  OFFSET 49.5577 92.2476 -26.6708
  CHANNELS 6 Xposition Yposition Zposition Zrotation Xrotation Yrotation
  JOINT Chest
  {
    OFFSET 1.23234e-007 14.8421 1.27321e-009
    CHANNELS 6 Xposition Yposition Zposition Zrotation Xrotation Yrotation
    JOINT LeftCollar
    {
      OFFSET 6.64893 27.3161 3.27471
      CHANNELS 6 Xposition Yposition Zposition Zrotation Xrotation Yrotation
      JOINT LeftUpArm
      {
        OFFSET 10.8584 2.41798 -0.945791
        CHANNELS 6 Xposition Yposition Zposition Zrotation Xrotation Yrotation
        JOINT LeftLowArm
        {
          OFFSET 3.77631 -24.5904 -1.70468
          CHANNELS 6 Xposition Yposition Zposition Zrotation Xrotation Yrotation
          JOINT LeftHand
          {
            OFFSET 1.01026 -21.1231 1.74131
            CHANNELS 6 Xposition Yposition Zposition Zrotation Xrotation Yrotation
            End Site
            {
              OFFSET 1.17583e-006 -9.81266 -2.89439e-008
            }
          }
        }
      }
    }
    JOINT RightCollar
    {
      OFFSET -6.11406 27.2248 4.23427
      CHANNELS 6 Xposition Yposition Zposition Zrotation Xrotation Yrotation
      JOINT RightUpArm
      {
        OFFSET -10.4566 2.3285 -0.910794
        CHANNELS 6 Xposition Yposition Zposition Zrotation Xrotation Yrotation
        JOINT RightLowArm
        {
          OFFSET -3.86856 -25.191 -1.74633
          CHANNELS 6 Xposition Yposition Zposition Zrotation Xrotation Yrotation
          JOINT RightHand
          {
            OFFSET -1.04759 -20.6242 1.75213
            CHANNELS 6 Xposition Yposition Zposition Zrotation Xrotation Yrotation
            End Site
            {
              OFFSET -2.03487e-006 -9.50367 -4.31372e-006
            }
          }
        }
      }
    }
    JOINT Neck
    {
      OFFSET 0.51659 29.8236 6.51843
      CHANNELS 6 Xposition Yposition Zposition Zrotation Xrotation Yrotation
      JOINT Head
      {
        OFFSET 1.16803e-007 7.47049 6.44171e-007
        CHANNELS 6 Xposition Yposition Zposition Zrotation Xrotation Yrotation
        End Site
        {
          OFFSET -4.32676e-008 16.2908 2.16786e-007
        }
      }
    }
  }
  JOINT LeftUpLeg
  {
    OFFSET 9 -3.38008e-006 -5.22997e-009
    CHANNELS 6 Xposition Yposition Zposition Zrotation Xrotation Yrotation
    JOINT LeftLowLeg
    {
      OFFSET -0.575 -51.431 3.90177
      CHANNELS 6 Xposition Yposition Zposition Zrotation Xrotation Yrotation
      JOINT LeftFoot
      {
        OFFSET 2.13082e-007 -43.5882 -3.90177
        CHANNELS 6 Xposition Yposition Zposition Zrotation Xrotation Yrotation
        End Site
        {
          OFFSET 7.44796e-007 -6.93413 15.0046
        }
      }
    }
  }
  JOINT RightUpLeg
  {
    OFFSET -9 6.86154e-007 -3.19538e-009
    CHANNELS 6 Xposition Yposition Zposition Zrotation Xrotation Yrotation
    JOINT RightLowLeg
    {
      OFFSET 0.575 -51.4311 3.90177
      CHANNELS 6 Xposition Yposition Zposition Zrotation Xrotation Yrotation
      JOINT RightFoot
      {
        OFFSET -7.46079e-007 -43.5882 -3.90177
        CHANNELS 6 Xposition Yposition Zposition Zrotation Xrotation Yrotation
        End Site
        {
          OFFSET 4.66716e-007 -6.93413 15.0046
        }
      }
    }
  }
}
MOTION
Frames:	9
Frame Time:	0.0333333
49.5577 92.2476 -26.6708 0.0261264 -10.4683 -3.66205 1.23234e-007 14.8421 1.27321e-009 0.525527 25.1728 2.24818 6.64893 27.3161 3.27471 -2.94784 5.93879 -4.20517 10.8584 2.41798 -0.945791 164.813 -62.0566 106.011 3.77631 -24.5904 -1.70468 11.5263 -2.95558 -21.7675 1.01026 -21.1231 1.74131 10.8066 -5.91866 1.1795 -6.11406 27.2248 4.23427 -1.96452 7.32629 3.42623 -10.4566 2.3285 -0.910794 -172.398 -54.3019 -131.904 -3.86856 -25.191 -1.74633 -5.6129 0.94203 74.9808 -1.04759 -20.6242 1.75213 -9.40709 9.88485 -0.827647 0.51659 29.8236 6.51843 -0.997399 -10.2577 0.300052 1.16803e-007 7.47049 6.44171e-007 0.0254032 10.2448 0.385301 9 -3.38008e-006 -5.22997e-009 13.1428 -11.0347 11.7221 -0.575 -51.431 3.90177 4.56797 45.2377 -25.8023 2.13082e-007 -43.5882 -3.90177 6.27767 -14.5095 0.0997126 -9 6.86154e-007 -3.19538e-009 -15.4372 -12.0554 -16.991 0.575 -51.4311 3.90177 -9.90183 42.9499 18.8225 -7.46079e-007 -43.5882 -3.90177 -6.91759 -14.2825 -0.0384219 
49.5018 92.159 -26.6925 -0.0416364 -10.3869 -3.62661 1.23234e-007 14.8421 1.27321e-009 0.632356 25.2383 2.15781 6.64893 27.3161 3.27471 -2.94784 5.93879 -4.20517 10.8584 2.41798 -0.945791 165.129 -61.7192 106.614 3.77631 -24.5904 -1.70468 11.5313 -2.94698 -21.9714 1.01026 -21.1231 1.74131 10.3785 -6.13756 1.11042 -6.11406 27.2248 4.23427 -1.96452 7.32629 3.42623 -10.4566 2.3285 -0.910794 -172.586 -54.1098 -131.865 -3.86856 -25.191 -1.74633 -5.68028 0.907124 74.8415 -1.04759 -20.6242 1.75213 -9.19587 9.82548 -0.81932 0.51659 29.8236 6.51843 -1.14141 -10.3793 0.30721 1.16803e-007 7.47049 6.44171e-007 0.142748 10.4548 0.324771 9 -3.38008e-006 -5.22998e-009 13.317 -11.2251 11.8279 -0.575 -51.431 3.90177 4.574 45.4303 -25.8942 2.13082e-007 -43.5882 -3.90177 6.28999 -14.5308 0.101149 -9 6.86154e-007 -3.19538e-009 -15.3487 -12.223 -16.9709 0.575 -51.4311 3.90177 -9.91852 43.1455 18.7324 -7.46079e-007 -43.5882 -3.90177 -6.88644 -14.2687 -0.0366426 
49.2748 92.0248 -26.7987 -0.563784 -10.3689 -3.51313 1.23234e-007 14.8421 1.27321e-009 1.18074 25.622 1.86277 6.64893 27.3161 3.27471 -2.94784 5.93879 -4.20517 10.8584 2.41798 -0.945791 165.595 -61.0464 107.059 3.77631 -24.5904 -1.70468 11.4786 -2.9308 -21.7397 1.01026 -21.1231 1.74131 10.4298 -6.44524 1.1277 -6.11406 27.2248 4.23427 -1.96452 7.32629 3.42623 -10.4566 2.3285 -0.910794 -172.96 -53.7463 -132.136 -3.86856 -25.191 -1.74633 -5.97647 0.714141 75.1598 -1.04759 -20.6242 1.75213 -8.30686 9.15135 -0.792975 0.51659 29.8236 6.51843 -1.3868 -10.69 0.281762 1.16803e-007 7.47049 6.44171e-007 0.635421 10.8201 0.109408 9 -3.38008e-006 -5.22998e-009 14.1031 -11.5344 12.1745 -0.575 -51.431 3.90177 4.83936 45.8514 -26.5997 2.13082e-007 -43.5882 -3.90177 6.35915 -14.5835 0.105875 -9 6.86154e-007 -3.19538e-009 -14.6562 -12.3244 -16.6837 0.575 -51.4311 3.90177 -9.84589 43.3964 18.2377 -7.46079e-007 -43.5882 -3.90177 -6.82379 -14.3131 -0.0364353 
49.3011 92.0014 -26.6815 -0.525877 -10.4564 -3.5944 1.23234e-007 14.8421 1.27322e-009 1.071 25.687 2.0078 6.64893 27.3161 3.27471 -2.94784 5.93879 -4.20517 10.8584 2.41798 -0.945791 165.939 -61.1184 107.422 3.77631 -24.5904 -1.70468 11.4779 -2.93159 -21.7512 1.01026 -21.1231 1.74131 10.2477 -6.40884 1.09399 -6.11406 27.2248 4.23427 -1.96452 7.32629 3.42623 -10.4566 2.3285 -0.910794 -172.797 -53.8533 -132.002 -3.86856 -25.191 -1.74633 -5.86086 0.792825 75.1623 -1.04759 -20.6242 1.75213 -8.83326 9.31359 -0.813161 0.51659 29.8236 6.51843 -1.29246 -10.4964 0.221258 1.16803e-007 7.47049 6.44171e-007 0.595305 10.685 0.0876954 9 -3.38008e-006 -5.22999e-009 14.1203 -11.3557 12.2858 -0.575 -51.431 3.90177 4.715 45.9069 -26.579 2.13082e-007 -43.5882 -3.90177 6.43242 -14.7148 0.1149 -9 6.86154e-007 -3.19538e-009 -14.7182 -12.2705 -16.6676 0.575 -51.4311 3.90177 -9.9578 43.554 18.4067 -7.46079e-007 -43.5882 -3.90177 -6.87929 -14.4572 -0.0451842 
49.3083 91.9512 -26.5493 -0.482417 -10.4175 -3.61971 1.23234e-007 14.8421 1.27322e-009 1.09523 25.4571 1.96519 6.64893 27.3161 3.27471 -2.94784 5.93879 -4.20517 10.8584 2.41798 -0.945791 165.655 -61.4381 107.181 3.77631 -24.5904 -1.70468 11.5151 -2.95477 -21.8565 1.01026 -21.1231 1.74131 10.337 -6.3626 1.10887 -6.11406 27.2248 4.23427 -1.96452 7.32629 3.42623 -10.4566 2.3285 -0.910794 -172.979 -54.1467 -131.97 -3.86856 -25.191 -1.74633 -5.74657 0.870578 74.9227 -1.04759 -20.6242 1.75213 -8.51917 9.46664 -0.79898 0.51659 29.8236 6.51843 -1.48016 -10.1417 0.285219 1.16803e-007 7.47049 6.44171e-007 0.610824 10.5837 0.0985271 9 -3.38008e-006 -5.22999e-009 14.1146 -11.3475 12.3288 -0.575 -51.431 3.90177 4.65087 46.0139 -26.4661 2.13082e-007 -43.5882 -3.90177 6.4851 -14.8361 0.122906 -9 6.86154e-007 -3.19538e-009 -14.7322 -12.3094 -16.5967 0.575 -51.4311 3.90177 -10.0986 43.6829 18.44 -7.46079e-007 -43.5882 -3.90177 -6.90765 -14.62 -0.0539189 
49.3709 91.94 -26.463 -0.39551 -10.4788 -3.57791 1.23234e-007 14.8421 1.27322e-009 1.06038 25.4671 1.83602 6.64893 27.3161 3.27471 -2.94784 5.93879 -4.20517 10.8584 2.41798 -0.945791 165.465 -61.5983 106.771 3.77631 -24.5904 -1.70468 11.4821 -2.9489 -21.8204 1.01026 -21.1231 1.74131 10.4638 -6.42259 1.13326 -6.11406 27.2248 4.23427 -1.96452 7.32629 3.42623 -10.4566 2.3285 -0.910794 -173.179 -54.3665 -132.051 -3.86856 -25.191 -1.74633 -5.85106 0.802615 74.5606 -1.04759 -20.6242 1.75213 -8.51006 9.28841 -0.799957 0.51659 29.8236 6.51843 -1.22984 -10.2936 0.330254 1.16803e-007 7.47049 6.44171e-007 0.198375 10.8946 0.308869 9 -3.38008e-006 -5.23e-009 13.9627 -11.2782 12.2525 -0.575 -51.431 3.90177 4.62524 46.053 -26.2509 2.13082e-007 -43.5882 -3.90177 6.48039 -14.8702 0.124583 -9 6.86154e-007 -3.19537e-009 -14.8461 -12.2236 -16.6183 0.575 -51.4311 3.90177 -10.1924 43.7359 18.5092 -7.46079e-007 -43.5882 -3.90177 -6.94249 -14.6925 -0.0587175 
49.4636 91.9259 -26.3325 -0.263939 -10.5063 -3.49738 1.23234e-007 14.8421 1.27323e-009 0.993038 25.3738 1.72351 6.64893 27.3161 3.27471 -2.94784 5.93879 -4.20517 10.8584 2.41798 -0.945791 165.435 -61.8163 106.689 3.77631 -24.5904 -1.70468 11.4699 -2.94429 -21.8313 1.01026 -21.1231 1.74131 10.1646 -6.3281 1.07689 -6.11406 27.2248 4.23427 -1.96452 7.32629 3.42623 -10.4566 2.3285 -0.910794 -173.148 -54.5489 -131.93 -3.86856 -25.191 -1.74633 -5.84763 0.793549 74.7171 -1.04759 -20.6242 1.75213 -8.25057 9.23799 -0.789627 0.51659 29.8236 6.51843 -1.35491 -10.8939 0.428514 1.16803e-007 7.47049 6.44171e-007 0.341852 11.6298 0.326857 9 -3.38008e-006 -5.23001e-009 13.6998 -11.2024 12.0587 -0.575 -51.431 3.90177 4.64426 46.0658 -26.0371 2.13082e-007 -43.5882 -3.90177 6.54904 -15.0311 0.135362 -9 6.86154e-007 -3.19537e-009 -15.0249 -12.1987 -16.6596 0.575 -51.4311 3.90177 -10.3288 43.8802 18.5386 -7.46079e-007 -43.5882 -3.90177 -6.89813 -14.6451 -0.0547192 
49.5211 91.933 -26.2047 -0.209798 -10.5043 -3.41988 1.23234e-007 14.8421 1.27323e-009 1.06837 25.2091 1.6191 6.64893 27.3161 3.27471 -2.94784 5.93879 -4.20517 10.8584 2.41798 -0.945791 165.269 -62.1108 106.571 3.77631 -24.5904 -1.70468 11.4666 -2.96351 -21.4705 1.01026 -21.1231 1.74131 9.82838 -6.51788 1.02108 -6.11406 27.2248 4.23427 -1.96452 7.32629 3.42623 -10.4566 2.3285 -0.910794 -173.135 -54.8129 -131.775 -3.86856 -25.191 -1.74633 -5.84112 0.791765 74.7583 -1.04759 -20.6242 1.75213 -8.4392 9.31675 -0.796909 0.51659 29.8236 6.51843 -1.27274 -11.12 0.348799 1.16803e-007 7.47049 6.44171e-007 0.164444 12.3877 0.317979 9 -3.38008e-006 -5.23002e-009 13.6073 -11.1641 12.0118 -0.575 -51.431 3.90177 4.63127 46.0931 -26.0232 2.13082e-007 -43.5882 -3.90177 6.5821 -15.0856 0.139404 -9 6.86154e-007 -3.19537e-009 -15.1242 -12.1242 -16.7398 0.575 -51.4311 3.90177 -10.3401 43.9159 18.4471 -7.46079e-007 -43.5882 -3.90177 -6.89743 -14.6782 -0.0562529 
49.5682 91.9221 -26.1178 -0.231311 -10.4088 -3.49076 1.23234e-007 14.8421 1.27324e-009 1.06669 25.0282 1.71291 6.64893 27.3161 3.27471 -2.94784 5.93879 -4.20517 10.8584 2.41798 -0.945791 165.298 -62.2362 106.453 3.77631 -24.5904 -1.70468 11.4093 -2.93691 -21.5244 1.01026 -21.1231 1.74131 9.98208 -6.4351 1.0469 -6.11406 27.2248 4.23427 -1.96452 7.32629 3.42623 -10.4566 2.3285 -0.910794 -172.893 -54.9565 -131.608 -3.86856 -25.191 -1.74633 -5.76311 0.835454 74.8688 -1.04759 -20.6242 1.75213 -8.66808 9.25167 -0.806837 0.51659 29.8236 6.51843 -1.13524 -11.2439 0.343381 1.16803e-007 7.47049 6.44171e-007 0.0942357 13.048 0.362954 9 -3.38008e-006 -5.23003e-009 13.6327 -11.2069 12.0617 -0.575 -51.431 3.90177 4.58362 46.1513 -25.9212 2.13082e-007 -43.5882 -3.90177 6.60842 -15.1712 0.144924 -9 6.86153e-007 -3.19536e-009 -15.0783 -12.1813 -16.6472 0.575 -51.4311 3.90177 -10.413 43.9039 18.5066 -7.46079e-007 -43.5882 -3.90177 -6.93467 -14.7823 -0.062648 
